<?xml version="1.0" encoding="utf-8"?>
<!-- Generator: Adobe Illustrator 25.2.0, SVG Export Plug-In . SVG Version: 6.00 Build 0)  -->
<svg version="1.1" id="Layer_1" xmlns="http://www.w3.org/2000/svg" xmlns:xlink="http://www.w3.org/1999/xlink" x="0px" y="0px"
	 viewBox="0 0 1800 1800" style="enable-background:new 0 0 1800 1800;" xml:space="preserve">
<style type="text/css">
	.st0{fill:#DADADA;}
	.st1{clip-path:url(#SVGID_2_);}
	.st2{fill:#5F5E5E;}
</style>
<rect class="st0" width="1800" height="1800"/>
<g>
	<defs>
		<rect id="SVGID_1_" x="29.11" width="1741.94" height="1800"/>
	</defs>
	<clipPath id="SVGID_2_">
		<use xlink:href="#SVGID_1_"  style="overflow:visible;"/>
	</clipPath>
	<g class="st1">
		<path class="st2" d="M900.07,156.52c118.77,0,211.56,43.21,278.36,129.62c66.81,86.41,100.21,196.87,100.21,331.38
			c0.82,167.12-53.61,299.6-163.31,397.42c-14.02,13.05-18.97,29.76-14.85,50.14l28.46,58.7c9.07,19.56,22.47,34.85,40.2,45.85
			c17.73,11,55.06,26.7,111.97,47.08c2.47,0.81,54.64,17.53,156.5,50.14c101.86,32.61,156.09,50.54,162.69,53.8
			c69.28,28.53,114.64,58.29,136.09,89.27c23.09,51.36,34.64,181.38,34.64,390.08H29.11c0-208.7,11.55-338.72,34.64-390.08
			c21.44-30.98,66.81-60.74,136.09-89.27c6.6-3.26,60.83-21.19,162.69-53.8c101.86-32.61,154.03-49.33,156.5-50.14
			c56.91-20.38,94.23-36.08,111.97-47.08c17.73-11,31.13-26.29,40.2-45.85l28.46-58.7c4.12-20.38-0.82-37.09-14.85-50.14
			c-109.69-97.82-164.13-230.3-163.31-397.42c0-134.51,33.4-244.97,100.21-331.38C688.51,199.73,781.3,156.52,900.07,156.52z"/>
	</g>
</g>
</svg>
