<?xml version="1.0" encoding="utf-8"?>
<!-- Generator: Adobe Illustrator 25.2.0, SVG Export Plug-In . SVG Version: 6.00 Build 0)  -->
<svg version="1.1" id="Layer_1" xmlns="http://www.w3.org/2000/svg" xmlns:xlink="http://www.w3.org/1999/xlink" x="0px" y="0px"
	 viewBox="0 0 427.62 167.52" style="enable-background:new 0 0 427.62 167.52;" xml:space="preserve">
<style type="text/css">
	.st0{fill:#FFFFFF;}
	.st1{fill:url(#SVGID_1_);}
	.st2{fill:url(#SVGID_2_);}
	.st3{fill:url(#SVGID_3_);}
</style>
<g>
	<path class="st0" d="M176.53,31.24c-3.07-2.92-6.75-5.19-10.96-6.75c-4.17-1.55-8.78-2.33-13.69-2.33c-4.91,0-9.52,0.78-13.69,2.33
		c-4.2,1.56-7.89,3.83-10.96,6.75c-3.08,2.93-5.51,6.52-7.22,10.67c-1.71,4.13-2.57,8.79-2.57,13.84s0.87,9.71,2.57,13.84
		c1.71,4.15,4.14,7.74,7.22,10.67c3.07,2.92,6.76,5.19,10.96,6.75c4.17,1.55,8.77,2.33,13.69,2.33c4.92,0,9.52-0.79,13.69-2.33
		c4.21-1.56,7.89-3.84,10.96-6.75c3.08-2.93,5.51-6.52,7.22-10.67c1.71-4.13,2.57-8.79,2.57-13.84c0-5.06-0.87-9.71-2.57-13.84
		C182.04,37.76,179.61,34.17,176.53,31.24z M168.57,55.75c0,2.58-0.4,4.96-1.19,7.07c-0.78,2.09-1.91,3.92-3.36,5.44
		c-1.44,1.52-3.2,2.72-5.23,3.57c-2.03,0.85-4.36,1.29-6.91,1.29c-2.55,0-4.88-0.43-6.91-1.29c-2.03-0.85-3.79-2.05-5.23-3.57
		c-1.45-1.52-2.58-3.35-3.35-5.44c-0.79-2.11-1.19-4.49-1.19-7.07c0-2.53,0.4-4.89,1.19-7.04c0.78-2.11,1.91-3.95,3.35-5.47
		c1.44-1.52,3.2-2.72,5.23-3.57c2.04-0.85,4.37-1.29,6.91-1.29c2.55,0,4.88,0.43,6.91,1.29c2.03,0.85,3.79,2.05,5.23,3.57
		c1.45,1.52,2.57,3.36,3.35,5.47C168.16,50.86,168.57,53.23,168.57,55.75z"/>
	<path class="st0" d="M246.84,23.68h-14.18c-0.83,0-1.57,0.51-1.87,1.28l-13.32,34.73l-13.09-34.72c-0.29-0.78-1.04-1.29-1.87-1.29
		h-15.12c-0.66,0-1.28,0.33-1.66,0.88c-0.37,0.55-0.45,1.25-0.2,1.86l24.04,60.14c0.3,0.76,1.04,1.26,1.86,1.26h10.62
		c0.81,0,1.54-0.49,1.85-1.24l24.8-60.14c0.25-0.62,0.18-1.32-0.19-1.88S247.51,23.68,246.84,23.68z"/>
	<path class="st0" d="M268.21,85.82V25.68c0-1.1-0.9-2-2-2h-13.25c-1.1,0-2,0.9-2,2v60.14c0,1.1,0.9,2,2,2h13.25
		C267.31,87.82,268.21,86.92,268.21,85.82z"/>
	<path class="st0" d="M317.94,87.82h17.33c1.1,0,2-0.9,2-2V25.68c0-1.1-0.9-2-2-2h-13.25c-1.1,0-2,0.9-2,2v34.97l-22.03-36.01
		c-0.36-0.59-1.01-0.96-1.71-0.96h-18.01c-1.1,0-2,0.9-2,2v60.14c0,1.1,0.9,2,2,2h13.25c1.1,0,2-0.9,2-2v-36l22.71,37.04
		C316.59,87.45,317.24,87.82,317.94,87.82z"/>
	<path class="st0" d="M401.94,48.14h-23.53c-1.1,0-2,0.9-2,2v12.23c0,1.1,0.9,2,2,2h8.79v6.53c-0.99,0.45-2.2,0.89-3.61,1.33
		c-1.89,0.59-4.21,0.89-6.88,0.89c-2.55,0-4.88-0.43-6.91-1.29c-2.03-0.85-3.79-2.05-5.23-3.57c-1.45-1.52-2.57-3.35-3.35-5.44
		c-0.79-2.11-1.19-4.49-1.19-7.07c0-2.53,0.4-4.89,1.19-7.04c0.78-2.11,1.91-3.95,3.35-5.47c1.44-1.52,3.2-2.72,5.23-3.57
		c2.04-0.85,4.37-1.29,6.91-1.29c3.11,0,5.7,0.43,7.71,1.28c2.01,0.85,3.85,2.13,5.46,3.8c0.38,0.4,0.94,0.61,1.46,0.61
		c0.55-0.01,1.07-0.24,1.45-0.65l9.34-10.19c0.74-0.81,0.69-2.07-0.12-2.82c-3.28-3.03-7.13-5.2-11.47-6.44
		c-4.21-1.21-8.87-1.82-13.84-1.82c-4.91,0-9.52,0.78-13.69,2.33c-4.2,1.56-7.89,3.83-10.96,6.75c-3.08,2.93-5.51,6.52-7.22,10.67
		c-1.71,4.13-2.57,8.79-2.57,13.84s0.87,9.71,2.57,13.84c1.71,4.15,4.14,7.74,7.22,10.67c3.07,2.92,6.76,5.19,10.96,6.75
		c4.17,1.55,8.77,2.33,13.69,2.33c4.54,0,9.05-0.47,13.41-1.4c4.4-0.94,8.69-2.48,12.74-4.6c0.66-0.34,1.08-1.03,1.08-1.77V50.14
		C403.94,49.04,403.04,48.14,401.94,48.14z"/>
</g>
<g>
	<linearGradient id="SVGID_1_" gradientUnits="userSpaceOnUse" x1="23.6767" y1="65.2611" x2="47.3533" y2="65.2611">
		<stop  offset="0" style="stop-color:#F1870D"/>
		<stop  offset="1" style="stop-color:#F0A10B"/>
	</linearGradient>
	<path class="st1" d="M47.35,35.42v47.22l-0.21,12.48c-0.01,0.38-0.22,0.74-0.55,0.93c-0.17,0.09-0.35,0.14-0.53,0.14
		c-0.19,0-0.38-0.05-0.55-0.15l-21.3-12.47c-0.33-0.2-0.54-0.55-0.54-0.94V35.42c0-0.6,0.48-1.09,1.09-1.09h21.51
		C46.86,34.33,47.35,34.82,47.35,35.42z"/>
	<linearGradient id="SVGID_2_" gradientUnits="userSpaceOnUse" x1="110.7212" y1="65.2604" x2="87.0456" y2="65.2604">
		<stop  offset="0" style="stop-color:#F1870D"/>
		<stop  offset="1" style="stop-color:#F0A10B"/>
	</linearGradient>
	<path class="st2" d="M88.52,96.19c-0.18,0-0.37-0.05-0.53-0.14c-0.34-0.19-0.55-0.54-0.55-0.93l-0.21-12.47V35.42
		c0-0.6,0.49-1.09,1.09-1.09h21.5c0.6,0,1.09,0.49,1.09,1.09v47.22c0,0.39-0.2,0.74-0.54,0.94L89.07,96.04
		C88.9,96.14,88.71,96.19,88.52,96.19z"/>
	<linearGradient id="SVGID_3_" gradientUnits="userSpaceOnUse" x1="67.3513" y1="58.3244" x2="67.3513" y2="26.3847">
		<stop  offset="0" style="stop-color:#F3E221"/>
		<stop  offset="1" style="stop-color:#F0B80D"/>
	</linearGradient>
	<path class="st3" d="M67.35,60.16c-0.18,0-0.36-0.05-0.53-0.14L24.23,36.36c-0.34-0.19-0.56-0.55-0.56-0.94
		c0-0.39,0.21-0.75,0.55-0.95l21.29-12.11c0.33-0.19,0.73-0.19,1.06-0.01L67.35,33.9l20.77-11.54c0.33-0.18,0.73-0.18,1.06,0.01
		l21.29,12.11c0.34,0.19,0.55,0.56,0.55,0.95c0,0.39-0.22,0.75-0.56,0.94L67.88,60.02C67.71,60.12,67.53,60.16,67.35,60.16z"/>
</g>
<g>
	<path class="st0" d="M53.65,103.57H25.67c-1.1,0-1.99,0.89-1.99,1.99v3.38c0,1.1,0.89,1.99,1.99,1.99h10.16v30.92
		c0,1.1,0.89,1.99,1.99,1.99h3.69c1.1,0,1.99-0.89,1.99-1.99v-30.92h10.16c1.1,0,1.99-0.89,1.99-1.99v-3.38
		C55.65,104.46,54.75,103.57,53.65,103.57z"/>
	<path class="st0" d="M101.96,126.06c2.1-0.6,3.83-1.64,5.16-3.08c1.93-2.1,2.91-4.7,2.91-7.73c0-3.89-1.34-6.87-4-8.87
		c-2.48-1.86-5.82-2.81-9.94-2.81H84.92c-1.1,0-1.99,0.89-1.99,1.99v36.29c0,1.1,0.89,1.99,1.99,1.99h3.69
		c1.1,0,1.99-0.89,1.99-1.99v-14.87h3.02l9.37,15.88c0.36,0.61,1.01,0.98,1.72,0.98h4.51c0.72,0,1.38-0.39,1.74-1.02
		c0.35-0.63,0.34-1.4-0.03-2.01L101.96,126.06z M90.6,110.93h4.57c1.45,0,2.67,0.14,3.63,0.41c0.86,0.25,1.54,0.57,2,0.96
		c0.44,0.37,0.74,0.78,0.93,1.25c0.21,0.54,0.32,1.09,0.32,1.69c0,0.64-0.1,1.21-0.32,1.75c-0.18,0.46-0.48,0.85-0.9,1.2
		c-0.48,0.39-1.16,0.72-2.05,0.99c-0.95,0.28-2.17,0.43-3.61,0.43H90.6V110.93z"/>
	<path class="st0" d="M157.22,104.76c-0.32-0.73-1.03-1.2-1.83-1.2h-3.59c-0.79,0-1.51,0.47-1.83,1.2l-15.79,36.29
		c-0.27,0.62-0.21,1.32,0.16,1.89c0.37,0.56,0.99,0.9,1.67,0.9h4.3c0.8,0,1.53-0.48,1.84-1.22l3.49-8.31h15.91l3.49,8.31
		c0.31,0.74,1.03,1.22,1.84,1.22h4.31c0.67,0,1.3-0.34,1.67-0.9c0.37-0.56,0.43-1.27,0.16-1.89L157.22,104.76z M148.69,126.94
		l4.91-11.86l4.88,11.86H148.69z"/>
	<path class="st0" d="M232.77,134.49l-3.02-2.15c-0.44-0.31-0.99-0.44-1.53-0.33c-0.53,0.1-1,0.42-1.3,0.88
		c-0.58,0.9-1.21,1.64-1.87,2.22c-0.65,0.57-1.35,1.02-2.08,1.35c-0.75,0.34-1.53,0.59-2.3,0.73c-0.82,0.15-1.65,0.22-2.49,0.22
		c-2.02,0-3.85-0.37-5.42-1.1c-1.59-0.73-2.95-1.73-4.04-2.95c-1.11-1.24-1.97-2.7-2.56-4.35c-0.6-1.67-0.91-3.45-0.91-5.3
		c0-1.84,0.31-3.63,0.91-5.3c0.59-1.65,1.45-3.11,2.56-4.35c1.09-1.22,2.45-2.22,4.04-2.95c1.57-0.73,3.4-1.1,5.42-1.1
		c0.77,0,1.55,0.11,2.32,0.33c0.82,0.24,1.6,0.55,2.31,0.92c0.69,0.37,1.31,0.79,1.83,1.26c0.52,0.46,0.92,0.91,1.19,1.34
		c0.3,0.46,0.78,0.78,1.32,0.88c0.54,0.09,1.1-0.04,1.54-0.36l3.23-2.41c0.43-0.32,0.71-0.8,0.78-1.33
		c0.07-0.53-0.08-1.07-0.41-1.49c-1.82-2.32-4.05-4.02-6.63-5.03c-2.48-0.98-5-1.47-7.5-1.47c-2.95,0-5.73,0.53-8.27,1.59
		c-2.54,1.05-4.77,2.53-6.64,4.4c-1.87,1.87-3.35,4.11-4.41,6.67c-1.05,2.56-1.58,5.38-1.58,8.4c0,3.02,0.53,5.84,1.58,8.4
		c1.05,2.56,2.53,4.8,4.41,6.67c1.87,1.87,4.1,3.35,6.64,4.4c2.54,1.05,5.32,1.59,8.27,1.59c1.66,0,3.26-0.19,4.77-0.57
		c1.49-0.38,2.9-0.91,4.19-1.57c1.31-0.67,2.5-1.49,3.53-2.42c1.02-0.93,1.9-1.93,2.6-2.99
		C233.87,136.32,233.65,135.11,232.77,134.49z"/>
	<path class="st0" d="M274.57,122.11l16.76-15.07c0.61-0.55,0.82-1.42,0.53-2.19c-0.29-0.77-1.03-1.28-1.86-1.28h-5.28
		c-0.5,0-0.98,0.19-1.35,0.53l-14.24,13.13v-11.66c0-1.1-0.89-1.99-1.99-1.99h-3.69c-1.1,0-1.99,0.89-1.99,1.99v36.29
		c0,1.1,0.89,1.99,1.99,1.99h3.69c1.1,0,1.99-0.89,1.99-1.99v-14.38l15.02,15.75c0.38,0.39,0.9,0.62,1.44,0.62h5.43
		c0.8,0,1.52-0.48,1.83-1.22c0.31-0.74,0.15-1.59-0.41-2.16L274.57,122.11z"/>
	<path class="st0" d="M344.48,136.47h-17.44v-9.8h15.59c1.1,0,1.99-0.89,1.99-1.99v-3.38c0-1.1-0.89-1.99-1.99-1.99h-15.59v-8.37
		h16.82c1.1,0,1.99-0.89,1.99-1.99v-3.38c0-1.1-0.89-1.99-1.99-1.99h-22.5c-1.1,0-1.99,0.89-1.99,1.99v36.29
		c0,1.1,0.89,1.99,1.99,1.99h23.12c1.1,0,1.99-0.89,1.99-1.99v-3.38C346.47,137.37,345.58,136.47,344.48,136.47z"/>
	<path class="st0" d="M403.39,140.81l-8.96-14.76c2.1-0.6,3.83-1.63,5.16-3.08c1.93-2.1,2.91-4.7,2.91-7.73c0-3.89-1.34-6.87-4-8.87
		c-2.48-1.86-5.82-2.81-9.94-2.81h-11.17c-1.1,0-1.99,0.89-1.99,1.99v36.29c0,1.1,0.89,1.99,1.99,1.99h3.69
		c1.1,0,1.99-0.89,1.99-1.99v-14.87h3.02l9.37,15.88c0.36,0.61,1.01,0.98,1.72,0.98h4.51c0.72,0,1.38-0.39,1.74-1.02
		C403.77,142.2,403.76,141.43,403.39,140.81z M383.07,110.93h4.57c1.45,0,2.67,0.14,3.63,0.41c0.86,0.25,1.54,0.57,2,0.96
		c0.44,0.37,0.74,0.78,0.93,1.25c0.21,0.54,0.32,1.09,0.32,1.69c0,0.64-0.1,1.21-0.32,1.75c-0.18,0.46-0.48,0.85-0.9,1.2
		c-0.48,0.39-1.16,0.72-2.05,0.99c-0.95,0.28-2.17,0.43-3.61,0.43h-4.57V110.93z"/>
</g>
</svg>
