<?xml version="1.0" encoding="utf-8"?>
<!-- Generator: Adobe Illustrator 25.2.0, SVG Export Plug-In . SVG Version: 6.00 Build 0)  -->
<svg version="1.1" id="Layer_1" xmlns="http://www.w3.org/2000/svg" xmlns:xlink="http://www.w3.org/1999/xlink" x="0px" y="0px"
	 viewBox="0 0 512 512" style="enable-background:new 0 0 512 512;" xml:space="preserve">
<style type="text/css">
	.st0{fill:#24378D;}
	.st1{fill:url(#SVGID_1_);}
	.st2{fill:url(#SVGID_2_);}
	.st3{fill:url(#SVGID_3_);}
</style>
<path class="st0" d="M462,512H50c-27.61,0-50-22.39-50-50V50C0,22.39,22.39,0,50,0h412c27.61,0,50,22.39,50,50v412
	C512,489.61,489.61,512,462,512z"/>
<g>
	<linearGradient id="SVGID_1_" gradientUnits="userSpaceOnUse" x1="40.6929" y1="285.8537" x2="157.4136" y2="285.8537">
		<stop  offset="0" style="stop-color:#F1870D"/>
		<stop  offset="1" style="stop-color:#F0A10B"/>
	</linearGradient>
	<path class="st1" d="M157.41,138.74v232.78l-1.03,61.54c-0.04,1.89-1.07,3.64-2.73,4.57c-0.82,0.46-1.73,0.7-2.62,0.7
		c-0.95,0-1.87-0.25-2.71-0.73L43.33,376.14c-1.62-0.96-2.64-2.73-2.64-4.62V138.74c0-2.96,2.39-5.35,5.35-5.35h106.02
		C155.01,133.38,157.41,135.77,157.41,138.74z"/>
	<linearGradient id="SVGID_2_" gradientUnits="userSpaceOnUse" x1="469.8051" y1="285.8503" x2="353.0888" y2="285.8503">
		<stop  offset="0" style="stop-color:#F1870D"/>
		<stop  offset="1" style="stop-color:#F0A10B"/>
	</linearGradient>
	<path class="st2" d="M360.35,438.32c-0.9,0-1.81-0.23-2.62-0.69c-1.66-0.93-2.7-2.67-2.73-4.57l-1.03-61.45V138.73
		c0-2.96,2.4-5.35,5.35-5.35h106.01c2.96,0,5.35,2.4,5.35,5.35v232.78c0,1.9-1.01,3.66-2.65,4.62l-104.98,61.45
		C362.22,438.08,361.28,438.32,360.35,438.32z"/>
	<linearGradient id="SVGID_3_" gradientUnits="userSpaceOnUse" x1="256" y1="251.6571" x2="256" y2="94.2004">
		<stop  offset="0" style="stop-color:#F3E221"/>
		<stop  offset="1" style="stop-color:#F0B80D"/>
	</linearGradient>
	<path class="st3" d="M256,260.71c-0.9,0-1.79-0.22-2.6-0.67L43.44,143.4c-1.69-0.94-2.74-2.72-2.75-4.65
		c-0.01-1.93,1.02-3.72,2.71-4.68l104.98-59.69c1.62-0.92,3.61-0.93,5.24-0.03L256,131.23l102.38-56.88
		c1.63-0.91,3.62-0.9,5.24,0.03l104.98,59.69c1.68,0.96,2.72,2.74,2.71,4.68c-0.01,1.93-1.06,3.71-2.75,4.65L258.6,260.04
		C257.79,260.49,256.9,260.71,256,260.71z"/>
</g>
</svg>
